<svg xmlns="http://www.w3.org/2000/svg" version="1.1" xmlns:xlink="http://www.w3.org/1999/xlink" xmlns:svgjs="http://svgjs.dev/svgjs" width="1500" height="818" viewBox="0 0 1500 818"><g transform="matrix(1,0,0,1,-0.9090909090909918,-99.522759425733)"><svg viewBox="0 0 396 216" data-background-color="#ffffff" preserveAspectRatio="xMidYMid meet" height="818" width="1500" xmlns="http://www.w3.org/2000/svg" xmlns:xlink="http://www.w3.org/1999/xlink"><g id="tight-bounds" transform="matrix(1,0,0,1,0.2400000000000091,32.46807545308059)"><svg viewBox="0 0 395.52 183.2850297663565" height="183.2850297663565" width="395.52"><g><svg viewBox="0 0 397.4975999999999 184.20145491518826" height="183.2850297663565" width="395.52"><g><rect width="397.4975999999999" height="3.4419838989756664" x="0" y="103.42888540950047" fill="#556970" opacity="1" stroke-width="0" stroke="transparent" fill-opacity="1" class="rect-yte-0" data-fill-palette-color="secondary" rx="1%" id="yte-0" data-palette-color="#556970"></rect></g><g transform="matrix(1,0,0,1,0.9887999999999693,115.88129836338625)"><svg viewBox="0 0 395.52 68.32015655180199" height="68.32015655180199" width="395.52"><g id="textblocktransform"><svg viewBox="0 0 395.52 68.32015655180199" height="68.32015655180199" width="395.52" id="textblock"><g><svg viewBox="0 0 395.52 38.16749290444654" height="38.16749290444654" width="395.52"><g transform="matrix(1,0,0,1,0,0)"><svg width="395.52" viewBox="1.95 -30.57 412.85 39.85" height="38.16749290444654" data-palette-color="#556970"><path d="M1.95 0L13.92 0Q13.92-1.07 13.13-1.22L13.13-1.22Q12.89-1.27 12.65-1.27L12.65-1.27 10.06-1.27 10.06-14.4 25.05-14.4 25.05-1.27 21.14-1.27 21.14 0 33.11 0Q33.11-1.07 32.32-1.22L32.32-1.22Q32.08-1.27 31.84-1.27L31.84-1.27 29.25-1.27 29.25-28.03 33.11-28.03 33.11-29.3 21.14-29.3 21.14-28.03 25.05-28.03 25.05-15.82 10.06-15.82 10.06-28.03 13.92-28.03 13.92-29.3 1.95-29.3 1.95-28.03 5.86-28.03 5.86-1.27 1.95-1.27 1.95 0ZM41.16-10.4L41.16-10.4Q41.16-17.97 45.31-19.63L45.31-19.63Q46.38-20.02 47.56-20.02L47.56-20.02Q52.98-20.02 53.85-13.18L53.85-13.18Q54-12.01 54-10.6L54-10.6Q54-2.39 49.51-0.98L49.51-0.98Q48.63-0.73 47.7-0.73L47.7-0.73Q42.77-0.73 41.5-6.59L41.5-6.59Q41.16-8.3 41.16-10.4ZM47.7-21.24L47.7-21.24Q43.02-21.24 39.89-18.02L39.89-18.02Q37.01-15.04 37.01-10.6L37.01-10.6Q37.01-4.44 41.5-1.37L41.5-1.37Q44.24 0.49 47.56 0.49L47.56 0.49Q52.24 0.49 55.32-2.83L55.32-2.83Q58.15-5.86 58.15-10.4L58.15-10.4Q58.15-16.55 53.61-19.53L53.61-19.53Q50.93-21.24 47.7-21.24ZM66.45-13.53L66.45-13.53Q66.55-19.97 71.33-20.02L71.33-20.02Q76.12-19.92 76.17-13.53L76.17-13.53Q76.07-6.88 71.33-6.84L71.33-6.84Q66.5-6.93 66.45-13.53ZM71.38-21.24L71.38-21.24Q66.99-21.24 64.4-18.41L64.4-18.41Q62.54-16.31 62.54-13.48L62.54-13.48Q62.54-9.77 66.16-7.32L66.16-7.32Q66.5-7.08 66.84-6.88L66.84-6.88Q63.72-6.88 62.93-4.2L62.93-4.2Q62.79-3.56 62.79-2.93L62.79-2.93Q62.84-0.34 64.89 0.93L64.89 0.93Q63.28 2.64 63.28 4.39L63.28 4.39Q63.28 7.08 66.45 8.4L66.45 8.4Q68.45 9.28 71.38 9.28L71.38 9.28Q78.8 9.28 81.2 5.66L81.2 5.66Q81.98 4.44 81.98 3.08L81.98 3.08Q81.98-1.12 77.14-1.76L77.14-1.76Q76.51-1.86 75.83-1.86L75.83-1.86 66.94-2.05Q64.69-2.2 64.64-4L64.64-4Q64.64-5.27 66.25-5.62L66.25-5.62Q66.6-5.66 66.99-5.66L66.99-5.66 71.28-5.62Q75.63-5.62 78.22-8.54L78.22-8.54Q80.07-10.64 80.07-13.53L80.07-13.53Q80.02-17.19 77.24-19.38L77.24-19.38Q77.68-20.95 78.9-21.24L78.9-21.24Q79.1-21.29 79.29-21.29L79.29-21.29Q79.98-21.29 80.76-20.56L80.76-20.56Q81.29-20.07 81.73-20.07L81.73-20.07Q82.95-20.36 83.15-21.63L83.15-21.63Q83.15-23.14 81.73-23.68L81.73-23.68Q81.2-23.88 80.66-23.88L80.66-23.88Q78.36-23.88 76.95-21.83L76.95-21.83Q76.41-21.04 76.12-20.12L76.12-20.12Q73.92-21.24 71.38-21.24ZM71.38 8.01L71.38 8.01Q66.55 8.01 65.28 5.47L65.28 5.47Q64.94 4.79 64.94 4.1L64.94 4.1Q64.99 2.78 66.11 1.46L66.11 1.46Q67.08 1.66 67.72 1.66L67.72 1.66 75.24 1.76Q78.9 1.81 79.49 3.42L79.49 3.42Q79.63 3.81 79.63 4.39L79.63 4.39Q79.63 6.54 75.63 7.52L75.63 7.52Q73.68 8.01 71.38 8.01ZM89.89-19.53L93.55-19.53 93.55-20.75 83.88-20.75 83.88-19.53 86.08-19.53 92.18-3.17Q93.21-0.39 94.28 0.05L94.28 0.05Q94.82 0.24 95.6 0.24L95.6 0.24 96.57 0.24 100.82-12.55 104.09-3.17Q105.02-0.44 106 0.05L106 0.05Q106.49 0.24 107.32 0.24L107.32 0.24 108.1 0.24 114.01-17.77Q114.49-19.29 115.18-19.48L115.18-19.48Q115.42-19.53 115.72-19.53L115.72-19.53Q116.79-19.53 116.94-20.21L116.94-20.21Q116.98-20.46 116.98-20.75L116.98-20.75 109.76-20.75 109.76-19.53 113.18-19.53 107.76-2.69 102.04-19.53 105.46-19.53 105.46-20.75 97.94-20.75 100.14-14.55 96.09-2.54 89.89-19.53ZM136.07 0.49L136.07 0.49Q139.83 0.49 140.22-4.05L140.22-4.05Q140.27-4.35 140.27-4.59L140.27-4.59 139-4.64Q138.66-1.07 137.1-1.03L137.1-1.03Q135.83-1.12 135.78-3.56L135.78-3.56 135.78-13.87Q135.78-20.85 128.8-21.24L128.8-21.24Q128.36-21.24 127.92-21.24L127.92-21.24Q122.45-21.24 120.6-18.7L120.6-18.7Q120.01-17.87 120.01-17.04L120.01-17.04Q120.01-15.53 121.43-15.28L121.43-15.28Q121.67-15.23 121.91-15.23L121.91-15.23Q123.04-15.23 123.57-16.65L123.57-16.65Q124.26-18.46 124.5-18.8L124.5-18.8Q125.43-20.02 127.38-20.02L127.38-20.02Q131.97-19.73 132.12-14.99L132.12-14.99 132.12-11.91Q120.64-11.91 118.98-7.13L118.98-7.13Q118.69-6.2 118.69-5.13L118.69-5.13Q118.69-1.42 121.96-0.05L121.96-0.05Q123.28 0.49 124.75 0.49L124.75 0.49Q128.31 0.49 130.75-1.95L130.75-1.95Q131.63-2.88 132.07-3.91L132.07-3.91Q132.66 0.44 136.07 0.49ZM126.36-1.46L126.36-1.46Q123.38-1.46 122.7-4.44L122.7-4.44Q122.55-5.13 122.55-5.96L122.55-5.96Q122.55-9.23 126.31-10.11L126.31-10.11Q128.31-10.55 132.12-10.6L132.12-10.6 132.12-6.69Q131.39-3.32 128.55-1.95L128.55-1.95Q127.43-1.46 126.36-1.46ZM152.92-1.22L152.92-1.22 149.4-1.22 149.4-10.94Q149.4-15.38 152.14-18.07L152.14-18.07Q153.21-19.09 153.94-19.14L153.94-19.14Q154.77-19.14 155.46-17.92L155.46-17.92Q156.24-16.55 156.92-16.36L156.92-16.36Q157.21-16.26 157.51-16.26L157.51-16.26Q158.97-16.26 159.36-17.68L159.36-17.68Q159.46-17.97 159.46-18.26L159.46-18.26Q159.46-20.46 157.21-20.95L157.21-20.95Q156.73-21.04 156.29-21.04L156.29-21.04Q153.36-21.04 151.06-18.55L151.06-18.55Q149.99-17.38 149.35-15.92L149.35-15.92 149.16-20.75 142.08-20.75 142.08-19.53 145.74-19.53 145.74-4.15Q145.74-1.9 144.47-1.46L144.47-1.46Q143.74-1.22 142.08-1.22L142.08-1.22 142.08 0 154.14 0Q154.14-1.07 153.41-1.17L153.41-1.17Q153.21-1.22 152.92-1.22ZM160.68-20.75L160.68-19.53 164.1-19.53 164.1-5.76Q164.44 0.34 169.71 0.54L169.71 0.54Q174.2 0.54 175.33-4.98L175.33-4.98Q175.33-5.03 175.33-5.08L175.33-5.08 174.01-5.32Q172.79-1.27 170.44-0.93L170.44-0.93Q167.81-1.03 167.76-4.69L167.76-4.69 167.76-19.53 175.33-19.53 175.33-20.75 167.76-20.75 167.76-26.42 164.1-25.39 164.1-20.75 160.68-20.75ZM184.85-0.83L184.85-0.83Q188.21-0.83 189.39-2.88L189.39-2.88Q189.83-3.61 189.83-4.49L189.83-4.49Q189.83-6.54 186.85-8.01L186.85-8.01Q186.21-8.35 184.75-8.98L184.75-8.98Q180.74-10.64 179.43-12.11L179.43-12.11Q178.01-13.72 178.01-15.87L178.01-15.87Q178.01-19.24 181.72-20.61L181.72-20.61Q183.43-21.24 185.43-21.24L185.43-21.24Q188.65-21.24 191-19.87L191-19.87Q191-21.29 191.68-21.48L191.68-21.48Q191.97-21.53 192.32-21.53L192.32-21.53 192.32-15.43 191.05-15.43Q190.95-19.92 186.07-19.97L186.07-19.97Q182.4-19.97 181.53-17.82L181.53-17.82Q181.28-17.24 181.28-16.6L181.28-16.6Q181.28-14.5 184.31-13.04L184.31-13.04Q184.99-12.7 186.46-12.11L186.46-12.11Q190.41-10.5 191.73-9.03L191.73-9.03Q193.15-7.47 193.15-5.32L193.15-5.32Q193.15-1.37 188.95-0.05L188.95-0.05Q187.34 0.49 185.43 0.49L185.43 0.49Q181.92 0.44 179.33-1.27L179.33-1.27Q179.33 0 178.69 0.2L178.69 0.2Q178.4 0.24 178.01 0.24L178.01 0.24 178.01-7.18 179.38-7.18Q179.47-0.88 184.85-0.83ZM205.1-29.3L205.1-28.03 209.01-28.03 209.01-10.99Q209.11 0.44 220.39 0.49L220.39 0.49Q228.98 0.49 230.79-6.54L230.79-6.54Q231.33-8.69 231.33-11.43L231.33-11.43 231.33-28.03 235.23-28.03 235.23-29.3 225.71-29.3 225.71-28.03 229.62-28.03 229.62-11.13Q229.62-1.66 222.58-0.93L222.58-0.93Q222-0.88 221.41-0.88L221.41-0.88Q215.46-0.88 213.89-5.91L213.89-5.91Q213.21-8.11 213.21-11.28L213.21-11.28 213.21-28.03 217.07-28.03 217.07-29.3 205.1-29.3ZM246.46-1.22L246.46-1.22 244.26-1.22 244.26-11.77Q244.41-16.31 247.48-18.31L247.48-18.31Q248.8-19.14 250.17-19.14L250.17-19.14Q253.15-19.14 254.22-16.36L254.22-16.36Q254.66-15.23 254.66-13.82L254.66-13.82 254.66-4.15Q254.66-1.9 253.39-1.46L253.39-1.46Q252.66-1.22 251-1.22L251-1.22 251 0 261.99 0Q261.99-1.07 261.25-1.17L261.25-1.17Q261.06-1.22 260.77-1.22L260.77-1.22 258.32-1.22 258.32-13.33Q258.32-18.21 254.96-20.31L254.96-20.31Q253.39-21.24 251.59-21.24L251.59-21.24Q247.97-21.24 245.63-18.36L245.63-18.36Q244.75-17.24 244.21-15.87L244.21-15.87 244.02-20.75 236.94-20.75 236.94-19.53 240.6-19.53 240.6-4.15Q240.6-1.9 239.33-1.46L239.33-1.46Q238.6-1.22 236.94-1.22L236.94-1.22 236.94 0 247.68 0Q247.68-1.07 246.95-1.17L246.95-1.17Q246.75-1.22 246.46-1.22ZM274.68-1.22L274.68-1.22 272.24-1.22 272.24-20.75 264.67-20.75 264.67-19.53 268.58-19.53 268.58-4.15Q268.58-1.9 267.06-1.42L267.06-1.42Q266.33-1.22 264.67-1.22L264.67-1.22 264.67 0 275.9 0Q275.9-1.07 275.17-1.17L275.17-1.17Q274.92-1.22 274.68-1.22ZM272.82-27.88L272.82-27.88Q272.82-29.59 271.31-30.32L271.31-30.32Q270.72-30.57 270.19-30.57L270.19-30.57Q268.48-30.57 267.75-29L267.75-29Q267.5-28.47 267.5-27.88L267.5-27.88Q267.5-26.07 269.11-25.39L269.11-25.39Q269.65-25.2 270.19-25.2L270.19-25.2Q271.9-25.2 272.58-26.76L272.58-26.76Q272.82-27.29 272.82-27.88ZM283.56-19.53L286.98-19.53 286.98-20.75 277.51-20.75 277.51-19.53 279.71-19.53 285.66-3.17Q286.64-0.44 287.81 0L287.81 0Q288.4 0.24 289.28 0.24L289.28 0.24 289.91 0.24 296.8-17.82Q297.38-19.34 298.21-19.48L298.21-19.48Q298.46-19.53 298.65-19.53L298.65-19.53Q299.73-19.53 299.82-20.26L299.82-20.26Q299.87-20.51 299.87-20.75L299.87-20.75 292.35-20.75 292.35-19.53 296.01-19.53 289.81-2.88 283.56-19.53ZM312.17-20.02L312.17-20.02Q315.59-20.02 316.72-17.14L316.72-17.14Q317.11-16.21 317.11-15.14L317.11-15.14Q317.11-12.7 314.76-12.16L314.76-12.16Q313.54-11.91 311.3-11.96L311.3-11.96 306.12-12.11Q306.36-17.72 309.78-19.43L309.78-19.43Q310.91-20.02 312.17-20.02ZM320.67-4.69L320.67-4.69 319.45-5.13Q317.74-1.42 313.93-0.93L313.93-0.93Q313.44-0.88 313-0.88L313-0.88Q307.88-0.88 306.56-6.98L306.56-6.98Q306.17-8.69 306.12-10.74L306.12-10.74 311.98-10.64Q317.94-10.55 319.65-11.77L319.65-11.77Q320.96-12.74 320.96-14.55L320.96-14.55Q320.96-17.87 317.59-19.82L317.59-19.82Q315.2-21.24 312.08-21.24L312.08-21.24Q305.97-21.24 303.34-16.16L303.34-16.16Q301.97-13.53 301.97-10.21L301.97-10.21Q301.97-4.15 306.32-1.22L306.32-1.22Q308.9 0.49 312.22 0.49L312.22 0.49Q317.5 0.49 319.99-3.32L319.99-3.32Q320.38-4 320.67-4.69ZM335.07-1.22L335.07-1.22 331.56-1.22 331.56-10.94Q331.56-15.38 334.29-18.07L334.29-18.07Q335.37-19.09 336.1-19.14L336.1-19.14Q336.93-19.14 337.61-17.92L337.61-17.92Q338.39-16.55 339.08-16.36L339.08-16.36Q339.37-16.26 339.66-16.26L339.66-16.26Q341.13-16.26 341.52-17.68L341.52-17.68Q341.62-17.97 341.62-18.26L341.62-18.26Q341.62-20.46 339.37-20.95L339.37-20.95Q338.88-21.04 338.44-21.04L338.44-21.04Q335.51-21.04 333.22-18.55L333.22-18.55Q332.14-17.38 331.51-15.92L331.51-15.92 331.31-20.75 324.23-20.75 324.23-19.53 327.89-19.53 327.89-4.15Q327.89-1.9 326.63-1.46L326.63-1.46Q325.89-1.22 324.23-1.22L324.23-1.22 324.23 0 336.29 0Q336.29-1.07 335.56-1.17L335.56-1.17Q335.37-1.22 335.07-1.22ZM351.13-0.83L351.13-0.83Q354.5-0.83 355.68-2.88L355.68-2.88Q356.11-3.61 356.11-4.49L356.11-4.49Q356.11-6.54 353.14-8.01L353.14-8.01Q352.5-8.35 351.04-8.98L351.04-8.98Q347.03-10.64 345.71-12.11L345.71-12.11Q344.3-13.72 344.3-15.87L344.3-15.87Q344.3-19.24 348.01-20.61L348.01-20.61Q349.72-21.24 351.72-21.24L351.72-21.24Q354.94-21.24 357.29-19.87L357.29-19.87Q357.29-21.29 357.97-21.48L357.97-21.48Q358.26-21.53 358.61-21.53L358.61-21.53 358.61-15.43 357.34-15.43Q357.24-19.92 352.36-19.97L352.36-19.97Q348.69-19.97 347.81-17.82L347.81-17.82Q347.57-17.24 347.57-16.6L347.57-16.6Q347.57-14.5 350.6-13.04L350.6-13.04Q351.28-12.7 352.75-12.11L352.75-12.11Q356.7-10.5 358.02-9.03L358.02-9.03Q359.44-7.47 359.44-5.32L359.44-5.32Q359.44-1.37 355.24-0.05L355.24-0.05Q353.62 0.49 351.72 0.49L351.72 0.49Q348.2 0.44 345.62-1.27L345.62-1.27Q345.62 0 344.98 0.2L344.98 0.2Q344.69 0.24 344.3 0.24L344.3 0.24 344.3-7.18 345.67-7.18Q345.76-0.88 351.13-0.83ZM372.86-1.22L372.86-1.22 370.42-1.22 370.42-20.75 362.85-20.75 362.85-19.53 366.76-19.53 366.76-4.15Q366.76-1.9 365.24-1.42L365.24-1.42Q364.51-1.22 362.85-1.22L362.85-1.22 362.85 0 374.08 0Q374.08-1.07 373.35-1.17L373.35-1.17Q373.1-1.22 372.86-1.22ZM371-27.88L371-27.88Q371-29.59 369.49-30.32L369.49-30.32Q368.91-30.57 368.37-30.57L368.37-30.57Q366.66-30.57 365.93-29L365.93-29Q365.68-28.47 365.68-27.88L365.68-27.88Q365.68-26.07 367.29-25.39L367.29-25.39Q367.83-25.2 368.37-25.2L368.37-25.2Q370.08-25.2 370.76-26.76L370.76-26.76Q371-27.29 371-27.88ZM376.52-20.75L376.52-19.53 379.94-19.53 379.94-5.76Q380.28 0.34 385.55 0.54L385.55 0.54Q390.05 0.54 391.17-4.98L391.17-4.98Q391.17-5.03 391.17-5.08L391.17-5.08 389.85-5.32Q388.63-1.27 386.29-0.93L386.29-0.93Q383.65-1.03 383.6-4.69L383.6-4.69 383.6-19.53 391.17-19.53 391.17-20.75 383.6-20.75 383.6-26.42 379.94-25.39 379.94-20.75 376.52-20.75ZM396.44 7.76L396.44 7.76Q395.66 7.76 395.27 6.59L395.27 6.59Q394.73 5.13 394.24 4.79L394.24 4.79Q393.8 4.49 393.22 4.49L393.22 4.49Q391.65 4.49 391.41 5.86L391.41 5.86Q391.36 6.05 391.36 6.2L391.36 6.2Q391.36 8.06 393.51 8.89L393.51 8.89Q394.49 9.28 395.56 9.28L395.56 9.28Q399.42 9.28 402.25 4.54L402.25 4.54Q403.42 2.64 404.5 0L404.5 0 411.72-17.82Q412.21-19.19 412.8-19.38L412.8-19.38Q413.14-19.48 413.58-19.48L413.58-19.48Q414.55-19.48 414.7-20.02L414.7-20.02Q414.8-20.31 414.8-20.75L414.8-20.75 407.38-20.75 407.38-19.48 410.94-19.48 404.69-3.86 398-19.48 401.27-19.48 401.27-20.75 391.75-20.75 391.75-19.48 394.14-19.48 402.93 0Q400.2 6.45 397.81 7.47L397.81 7.47Q397.12 7.76 396.44 7.76Z" opacity="1" transform="matrix(1,0,0,1,0,0)" fill="#556970" class="wordmark-text-0" data-fill-palette-color="primary" id="text-0"></path></svg></g></svg></g><g transform="matrix(1,0,0,1,0,47.17792195935666)"><svg viewBox="0 0 395.52 21.142234592445327" height="21.142234592445327" width="395.52"><g transform="matrix(1,0,0,1,0,0)"><svg width="395.52" viewBox="3.98 -39.5 982.34 52.510000000000005" height="21.142234592445327" data-palette-color="#556970"><path d="M29.22-4.49L29.22 0 3.98 0 3.98-35.16 29.22-35.16 29.22-30.66 13.67-30.66 13.67-19.8 25.68-19.8 25.68-15.33 13.67-15.33 13.67-4.49 29.22-4.49ZM78.07-16.46L78.07-16.46Q78.07-13.55 77.39-10.4 76.71-7.25 75.47-4.26 74.24-1.27 72.51 1.39 70.77 4.05 68.65 6.01L68.65 6.01 65.55 4.32Q66.26 3.05 66.84 1.46 67.43-0.12 67.92-1.88 68.41-3.64 68.77-5.49 69.14-7.35 69.39-9.19 69.65-11.04 69.77-12.77 69.89-14.5 69.89-16.02L69.89-16.02Q69.89-16.87 69.85-17.87 69.8-18.87 69.64-19.87 69.48-20.87 69.16-21.79 68.85-22.71 68.3-23.43 67.75-24.15 66.93-24.57 66.11-25 64.96-25L64.96-25Q63.84-25 63.05-24.4 62.25-23.8 61.69-22.85 61.13-21.9 60.8-20.7 60.47-19.51 60.3-18.3 60.13-17.09 60.07-15.99 60.01-14.89 60.01-14.14L60.01-14.14 60.01 0 51.78 0 51.78-13.13Q51.78-13.99 51.8-15.2 51.83-16.41 51.74-17.72 51.66-19.04 51.43-20.35 51.19-21.66 50.69-22.68 50.19-23.71 49.34-24.35 48.48-25 47.19-25L47.19-25Q46.09-25 45.35-24.39 44.6-23.78 44.1-22.81 43.6-21.85 43.32-20.64 43.04-19.43 42.91-18.23 42.77-17.02 42.75-15.93 42.72-14.84 42.72-14.14L42.72-14.14 42.72 0 34.45 0 34.45-28.2 37.62-28.2 40.65-21.63Q41.67-25.05 43.88-26.97 46.09-28.88 49.75-28.88L49.75-28.88Q53.05-28.88 55.22-27.51 57.39-26.15 58.64-23.07L58.64-23.07Q59.35-24.41 60.21-25.49 61.08-26.56 62.14-27.32 63.21-28.08 64.5-28.48 65.79-28.88 67.36-28.88L67.36-28.88Q70.24-28.88 72.28-27.94 74.31-27 75.61-25.34 76.9-23.68 77.49-21.4 78.07-19.12 78.07-16.46ZM113.54-14.16L113.54-14.16Q113.54-11.08 112.62-8.4 111.69-5.71 109.93-3.72 108.17-1.73 105.63-0.59 103.1 0.56 99.87 0.56L99.87 0.56Q97.41 0.56 95.34-0.4 93.28-1.37 91.82-3.37L91.82-3.37 91.82 13.01 83.56 13.01 83.56-28.2 86.74-28.2 90.4-22.07Q90.94-23.61 91.88-24.87 92.82-26.12 94.05-27.01 95.28-27.91 96.76-28.39 98.24-28.88 99.87-28.88L99.87-28.88Q103.1-28.88 105.63-27.73 108.17-26.59 109.93-24.6 111.69-22.61 112.62-19.92 113.54-17.24 113.54-14.16ZM105.17-14.16L105.17-14.16Q105.17-15.23 105.06-16.44 104.95-17.65 104.68-18.85 104.41-20.04 103.94-21.14 103.46-22.24 102.73-23.08 102-23.93 100.96-24.43 99.92-24.93 98.55-24.93L98.55-24.93Q97.14-24.93 96.1-24.44 95.06-23.95 94.32-23.11 93.57-22.27 93.1-21.18 92.62-20.09 92.35-18.9 92.08-17.7 91.97-16.48 91.87-15.26 91.87-14.16L91.87-14.16Q91.87-13.18 92.01-12 92.16-10.82 92.48-9.62 92.79-8.42 93.31-7.3 93.82-6.18 94.56-5.3 95.31-4.42 96.3-3.89 97.29-3.37 98.55-3.37L98.55-3.37Q99.95-3.37 100.97-3.87 102-4.37 102.73-5.21 103.46-6.05 103.94-7.15 104.41-8.25 104.68-9.45 104.95-10.64 105.06-11.87 105.17-13.09 105.17-14.16ZM148.63-14.16L148.63-14.16Q148.63-11.96 148.04-10.03 147.45-8.11 146.42-6.47 145.38-4.83 143.91-3.53 142.45-2.22 140.7-1.32 138.96-0.42 136.97 0.07 134.98 0.56 132.88 0.56L132.88 0.56Q130.78 0.56 128.8 0.07 126.82-0.42 125.08-1.32 123.33-2.22 121.87-3.53 120.4-4.83 119.37-6.47 118.33-8.11 117.74-10.05 117.16-11.99 117.16-14.16L117.16-14.16Q117.16-16.33 117.74-18.27 118.33-20.21 119.37-21.85 120.4-23.49 121.87-24.79 123.33-26.1 125.08-27 126.82-27.91 128.8-28.39 130.78-28.88 132.88-28.88L132.88-28.88Q134.98-28.88 136.97-28.39 138.96-27.91 140.7-27 142.45-26.1 143.91-24.79 145.38-23.49 146.42-21.85 147.45-20.21 148.04-18.27 148.63-16.33 148.63-14.16ZM140.23-14.16L140.23-14.16Q140.23-15.33 140.09-16.64 139.96-17.94 139.64-19.2 139.32-20.46 138.77-21.62 138.22-22.78 137.42-23.65 136.61-24.51 135.49-25.04 134.37-25.56 132.88-25.56L132.88-25.56Q131.46-25.56 130.36-25.02 129.26-24.49 128.45-23.6 127.63-22.71 127.08-21.53 126.53-20.36 126.19-19.1 125.85-17.85 125.7-16.56 125.55-15.28 125.55-14.16L125.55-14.16Q125.55-13.04 125.7-11.76 125.85-10.47 126.19-9.2 126.53-7.93 127.08-6.77 127.63-5.62 128.45-4.72 129.26-3.83 130.36-3.3 131.46-2.76 132.88-2.76L132.88-2.76Q134.34-2.76 135.47-3.28 136.59-3.81 137.41-4.69 138.22-5.57 138.76-6.71 139.3-7.86 139.63-9.13 139.96-10.4 140.09-11.69 140.23-12.99 140.23-14.16ZM170.77-17.14L166.1 0 158.68 0 150.97-28.2 159.22-28.2 164.05-8.42 168.08-28.2 175.5-28.2 180.43-7.89 185.2-28.2 190.91-28.2 182.36 0 174.94 0 170.77-17.14ZM201.48-13.38L201.48-13.38Q202.99-13.04 204.5-12.84 206.02-12.65 207.56-12.65L207.56-12.65Q209.17-12.65 210.55-12.95 211.93-13.26 212.94-13.98 213.95-14.7 214.54-15.89 215.12-17.09 215.12-18.87L215.12-18.87Q215.12-20.31 214.73-21.51 214.34-22.71 213.57-23.56 212.8-24.41 211.68-24.89 210.56-25.37 209.07-25.37L209.07-25.37Q207.68-25.37 206.57-24.85 205.46-24.34 204.61-23.47 203.77-22.61 203.17-21.46 202.58-20.31 202.18-19.07 201.79-17.82 201.62-16.55 201.45-15.28 201.45-14.16L201.45-14.16Q201.45-13.96 201.45-13.77 201.45-13.57 201.48-13.38ZM221.81-18.95L221.81-18.95Q221.81-17.21 221.25-15.86 220.69-14.5 219.73-13.48 218.76-12.45 217.49-11.74 216.22-11.04 214.78-10.58 213.34-10.13 211.82-9.94 210.29-9.74 208.85-9.74L208.85-9.74Q207.02-9.74 205.24-10 203.45-10.25 201.72-10.82L201.72-10.82Q201.99-9.2 202.58-7.75 203.16-6.3 204.14-5.21 205.11-4.13 206.54-3.49 207.97-2.86 209.92-2.86L209.92-2.86Q211.22-2.86 212.39-3.25 213.56-3.64 214.54-4.35 215.51-5.05 216.26-6.03 217-7.01 217.47-8.2L217.47-8.2 221.03-6.88Q220.23-4.96 218.82-3.55 217.42-2.15 215.65-1.23 213.88-0.32 211.89 0.12 209.9 0.56 207.95 0.56L207.95 0.56Q204.72 0.56 201.99-0.52 199.26-1.61 197.28-3.56 195.3-5.52 194.18-8.23 193.05-10.94 193.05-14.16L193.05-14.16Q193.05-17.38 194.18-20.09 195.3-22.8 197.28-24.76 199.26-26.71 201.99-27.8 204.72-28.88 207.95-28.88L207.95-28.88Q209.51-28.88 211.14-28.66 212.78-28.44 214.32-27.97 215.86-27.49 217.22-26.73 218.59-25.98 219.6-24.87 220.62-23.75 221.22-22.29 221.81-20.83 221.81-18.95ZM250.94-25.71L250.94-25.71 246.3-18.02Q246.01-18.99 245.54-20.21 245.08-21.44 244.39-22.5 243.71-23.56 242.76-24.28 241.81-25 240.56-25L240.56-25Q239.41-25 238.57-24.41 237.73-23.83 237.14-22.89 236.56-21.95 236.18-20.76 235.8-19.58 235.59-18.37 235.39-17.16 235.31-16.05 235.24-14.94 235.24-14.14L235.24-14.14 235.24 0 226.96 0 226.96-28.2 230.14-28.2 233.48-21.63Q234.16-23.22 235.04-24.55 235.92-25.88 237.07-26.84 238.22-27.81 239.67-28.34 241.12-28.88 242.95-28.88L242.95-28.88Q243.91-28.88 245.08-28.72 246.25-28.56 247.37-28.19 248.5-27.81 249.45-27.2 250.4-26.59 250.94-25.71ZM263.04-35.01L263.04-35.01Q263.04-34.08 262.69-33.25 262.34-32.42 261.73-31.81 261.12-31.2 260.29-30.85 259.46-30.49 258.53-30.49L258.53-30.49Q257.6-30.49 256.78-30.85 255.96-31.2 255.35-31.81 254.74-32.42 254.39-33.25 254.04-34.08 254.04-35.01L254.04-35.01Q254.04-35.94 254.39-36.76 254.74-37.57 255.35-38.18 255.96-38.79 256.78-39.15 257.6-39.5 258.53-39.5L258.53-39.5Q259.46-39.5 260.29-39.15 261.12-38.79 261.73-38.18 262.34-37.57 262.69-36.76 263.04-35.94 263.04-35.01ZM262.68-28.17L262.68 0 254.4 0 254.4-28.17 262.68-28.17ZM298.42-16.16L298.42-16.16Q298.42-13.31 297.72-10.21 297.03-7.1 295.78-4.13 294.54-1.15 292.8 1.48 291.07 4.1 288.99 6.01L288.99 6.01 285.89 4.32Q286.55 3.1 287.14 1.59 287.72 0.07 288.2-1.62 288.68-3.32 289.05-5.13 289.43-6.93 289.69-8.7 289.95-10.47 290.08-12.15 290.21-13.82 290.21-15.26L290.21-15.26Q290.21-16.21 290.14-17.3 290.07-18.38 289.84-19.47 289.6-20.56 289.21-21.56 288.82-22.56 288.18-23.32 287.53-24.07 286.61-24.54 285.7-25 284.45-25L284.45-25Q283.23-25 282.28-24.45 281.33-23.9 280.6-23.01 279.86-22.12 279.34-20.97 278.81-19.82 278.48-18.62 278.15-17.41 278.01-16.24 277.86-15.06 277.86-14.14L277.86-14.14 277.86 0 269.58 0 269.58-28.2 272.76-28.2 276.54-21.63Q277.23-23.27 278.25-24.61 279.28-25.95 280.57-26.9 281.86-27.86 283.44-28.37 285.01-28.88 286.85-28.88L286.85-28.88Q289.77-28.88 291.95-27.93 294.12-26.98 295.56-25.28 297-23.58 297.71-21.25 298.42-18.92 298.42-16.16ZM332.25-28.2L332.25-3.39Q332.25-0.02 331.25 2.95 330.25 5.93 328.35 8.17 326.44 10.4 323.67 11.71 320.9 13.01 317.36 13.01L317.36 13.01Q315.41 13.01 313.42 12.57 311.43 12.13 309.66 11.22 307.89 10.3 306.48 8.9 305.08 7.5 304.27 5.59L304.27 5.59 307.84 4.25Q308.3 5.44 309.05 6.45 309.79 7.45 310.77 8.17 311.75 8.89 312.92 9.29 314.09 9.69 315.38 9.69L315.38 9.69Q317.82 9.69 319.47 8.69 321.12 7.69 322.12 6.08 323.12 4.47 323.56 2.43 324 0.39 324-1.71L324-1.71 324-3.37Q322.54-1.37 320.47-0.4 318.41 0.56 315.94 0.56L315.94 0.56Q312.72 0.56 310.18-0.59 307.64-1.73 305.89-3.72 304.13-5.71 303.2-8.4 302.27-11.08 302.27-14.16L302.27-14.16Q302.27-17.24 303.2-19.92 304.13-22.61 305.89-24.6 307.64-26.59 310.18-27.73 312.72-28.88 315.94-28.88L315.94-28.88Q317.58-28.88 319.06-28.39 320.53-27.91 321.77-27.01 323-26.12 323.94-24.87 324.88-23.61 325.42-22.07L325.42-22.07 329.08-28.2 332.25-28.2ZM323.95-14.16L323.95-14.16Q323.95-15.26 323.84-16.48 323.73-17.7 323.46-18.9 323.2-20.09 322.72-21.18 322.24-22.27 321.5-23.11 320.75-23.95 319.7-24.44 318.65-24.93 317.26-24.93L317.26-24.93Q315.87-24.93 314.85-24.43 313.82-23.93 313.09-23.08 312.36-22.24 311.88-21.14 311.4-20.04 311.13-18.85 310.87-17.65 310.76-16.44 310.65-15.23 310.65-14.16L310.65-14.16Q310.65-13.09 310.76-11.87 310.87-10.64 311.13-9.45 311.4-8.25 311.88-7.15 312.36-6.05 313.09-5.21 313.82-4.37 314.85-3.87 315.87-3.37 317.26-3.37L317.26-3.37Q318.53-3.37 319.52-3.89 320.51-4.42 321.25-5.3 322-6.18 322.51-7.3 323.02-8.42 323.34-9.62 323.66-10.82 323.81-12 323.95-13.18 323.95-14.16ZM368.87 0L360.84-26.22 358.1 0 352.12 0 358.1-35.16 366.96-35.16 375.19-8.33 383.52-35.16 392.38-35.16 397.36 0 387.5 0 384.59-25.54 377.73 0 368.87 0ZM411.44-35.01L411.44-35.01Q411.44-34.08 411.09-33.25 410.74-32.42 410.13-31.81 409.52-31.2 408.69-30.85 407.86-30.49 406.93-30.49L406.93-30.49Q406-30.49 405.18-30.85 404.36-31.2 403.75-31.81 403.14-32.42 402.79-33.25 402.44-34.08 402.44-35.01L402.44-35.01Q402.44-35.94 402.79-36.76 403.14-37.57 403.75-38.18 404.36-38.79 405.18-39.15 406-39.5 406.93-39.5L406.93-39.5Q407.86-39.5 408.69-39.15 409.52-38.79 410.13-38.18 410.74-37.57 411.09-36.76 411.44-35.94 411.44-35.01ZM411.08-28.17L411.08 0 402.8 0 402.8-28.17 411.08-28.17ZM446.82-16.16L446.82-16.16Q446.82-13.31 446.12-10.21 445.43-7.1 444.18-4.13 442.94-1.15 441.2 1.48 439.47 4.1 437.39 6.01L437.39 6.01 434.29 4.32Q434.95 3.1 435.54 1.59 436.12 0.07 436.6-1.62 437.08-3.32 437.46-5.13 437.83-6.93 438.09-8.7 438.35-10.47 438.48-12.15 438.61-13.82 438.61-15.26L438.61-15.26Q438.61-16.21 438.54-17.3 438.47-18.38 438.24-19.47 438-20.56 437.61-21.56 437.22-22.56 436.58-23.32 435.93-24.07 435.01-24.54 434.1-25 432.85-25L432.85-25Q431.63-25 430.68-24.45 429.73-23.9 429-23.01 428.26-22.12 427.74-20.97 427.21-19.82 426.88-18.62 426.55-17.41 426.41-16.24 426.26-15.06 426.26-14.14L426.26-14.14 426.26 0 417.99 0 417.99-28.2 421.16-28.2 424.94-21.63Q425.63-23.27 426.65-24.61 427.68-25.95 428.97-26.9 430.27-27.86 431.84-28.37 433.41-28.88 435.25-28.88L435.25-28.88Q438.18-28.88 440.35-27.93 442.52-26.98 443.96-25.28 445.4-23.58 446.11-21.25 446.82-18.92 446.82-16.16ZM480.68-38.57L480.68 0 477.5 0 473.84-6.13Q473.3-4.59 472.36-3.34 471.42-2.1 470.19-1.21 468.96-0.32 467.48 0.17 466.01 0.66 464.37 0.66L464.37 0.66Q461.15 0.66 458.61-0.49 456.07-1.64 454.31-3.63 452.55-5.62 451.63-8.3 450.7-10.99 450.7-14.06L450.7-14.06Q450.7-17.14 451.63-19.82 452.55-22.51 454.31-24.49 456.07-26.46 458.61-27.61 461.15-28.76 464.37-28.76L464.37-28.76Q466.84-28.76 468.9-27.81 470.96-26.86 472.43-24.83L472.43-24.83 472.43-38.57 480.68-38.57ZM472.38-14.06L472.38-14.06Q472.38-15.04 472.23-16.21 472.08-17.38 471.77-18.58 471.45-19.78 470.94-20.9 470.42-22.02 469.68-22.9 468.93-23.78 467.95-24.3 466.96-24.83 465.69-24.83L465.69-24.83Q464.3-24.83 463.27-24.33 462.25-23.83 461.51-22.99 460.78-22.14 460.3-21.04 459.83-19.95 459.56-18.75 459.29-17.55 459.18-16.35 459.07-15.14 459.07-14.06L459.07-14.06Q459.07-12.99 459.18-11.78 459.29-10.57 459.56-9.38 459.83-8.18 460.3-7.07 460.78-5.96 461.51-5.11 462.25-4.27 463.27-3.77 464.3-3.27 465.69-3.27L465.69-3.27Q467.08-3.27 468.13-3.76 469.18-4.25 469.92-5.09 470.67-5.93 471.14-7.02 471.62-8.11 471.89-9.31 472.16-10.52 472.27-11.74 472.38-12.96 472.38-14.06ZM511.83-9.01L511.83-9.01Q511.83-7.15 511.29-5.71 510.75-4.27 509.83-3.21 508.9-2.15 507.63-1.43 506.36-0.71 504.91-0.27 503.45 0.17 501.87 0.37 500.28 0.56 498.72 0.56L498.72 0.56Q496.62 0.56 495.01 0.29 493.4 0.02 491.93-0.57 490.47-1.17 489.01-2.12 487.56-3.08 485.78-4.44L485.78-4.44 490.59-8.37Q491.25-7.13 492.33-6.12 493.42-5.1 494.59-4.37 495.76-3.64 496.86-3.25 497.96-2.86 498.64-2.86L498.64-2.86Q499.21-2.86 499.91-2.89 500.62-2.93 501.35-3.04 502.09-3.15 502.79-3.37 503.5-3.59 504.05-3.97 504.6-4.35 504.93-4.92 505.26-5.49 505.26-6.3L505.26-6.3Q505.26-7.13 504.83-7.75 504.41-8.37 503.72-8.84 503.04-9.3 502.16-9.62 501.28-9.94 500.39-10.18 499.5-10.42 498.67-10.61 497.84-10.79 497.23-10.96L497.23-10.96Q496.11-11.28 494.86-11.61 493.61-11.94 492.39-12.37 491.17-12.79 490.06-13.38 488.95-13.96 488.11-14.78 487.27-15.6 486.77-16.71 486.27-17.82 486.27-19.31L486.27-19.31Q486.27-22.05 487.35-23.89 488.44-25.73 490.22-26.84 492-27.95 494.27-28.42 496.54-28.88 498.89-28.88L498.89-28.88Q500.5-28.88 502.28-28.55 504.06-28.22 505.75-27.58 507.43-26.93 508.9-26 510.36-25.07 511.34-23.88L511.34-23.88 506.53-19.92Q505.99-21.39 505.13-22.44 504.26-23.49 503.25-24.16 502.23-24.83 501.17-25.15 500.11-25.46 499.21-25.46L499.21-25.46Q498.33-25.46 497.23-25.39 496.13-25.32 495.17-24.98 494.2-24.63 493.53-23.94 492.86-23.24 492.86-22.02L492.86-22.02Q492.86-21.14 493.26-20.52 493.66-19.9 494.32-19.45 494.98-18.99 495.82-18.69 496.67-18.38 497.55-18.15 498.42-17.92 499.25-17.75 500.08-17.58 500.74-17.38L500.74-17.38Q501.87-17.07 503.12-16.74 504.38-16.41 505.6-15.98 506.82-15.55 507.96-14.98 509.09-14.4 509.95-13.57 510.8-12.74 511.32-11.63 511.83-10.52 511.83-9.01ZM525.03-3.66L525.03-3.66Q525.03-2.54 524.74-1.37 524.45-0.2 523.92 0.92 523.4 2.03 522.69 3.02 521.98 4 521.15 4.76L521.15 4.76 517.64 2.91Q518.15 2.51 518.67 1.88 519.2 1.25 519.3 0.61L519.3 0.61Q518.59 0.39 518.01-0.02 517.44-0.44 517.03-1.01 516.61-1.59 516.38-2.26 516.15-2.93 516.15-3.66L516.15-3.66Q516.15-4.57 516.5-5.38 516.85-6.2 517.45-6.8 518.05-7.4 518.86-7.75 519.66-8.11 520.59-8.11L520.59-8.11Q521.52-8.11 522.32-7.75 523.13-7.4 523.74-6.8 524.35-6.2 524.69-5.38 525.03-4.57 525.03-3.66ZM574.64-10.74L574.64-10.74Q574.64-8.47 574.06-6.74 573.49-5 572.45-3.74 571.41-2.47 570-1.61 568.58-0.76 566.91-0.24 565.24 0.27 563.37 0.49 561.5 0.71 559.57 0.71L559.57 0.71Q557.04 0.71 554.89 0.33 552.74-0.05 550.85-0.87 548.95-1.68 547.21-2.98 545.46-4.27 543.73-6.13L543.73-6.13 548.71-11.18Q549.39-9.5 550.59-8.07 551.79-6.64 553.21-5.62 554.64-4.59 556.18-4 557.72-3.42 559.09-3.42L559.09-3.42Q560.7-3.42 562.11-3.65 563.53-3.88 564.58-4.42 565.63-4.96 566.23-5.85 566.83-6.74 566.83-8.08L566.83-8.08Q566.83-9.11 566.36-9.84 565.9-10.57 565.15-11.1 564.41-11.62 563.46-11.99 562.5-12.35 561.52-12.61 560.53-12.87 559.57-13.07 558.62-13.28 557.89-13.5L557.89-13.5Q556.45-13.92 554.89-14.39 553.32-14.87 551.81-15.48 550.3-16.09 548.94-16.88 547.59-17.68 546.56-18.76 545.54-19.85 544.93-21.28 544.32-22.71 544.32-24.56L544.32-24.56Q544.32-26.78 544.86-28.5 545.41-30.22 546.41-31.49 547.42-32.76 548.78-33.63 550.15-34.5 551.79-35.02 553.42-35.55 555.27-35.78 557.11-36.01 559.04-36.01L559.04-36.01Q561.67-36.01 563.83-35.52 566-35.03 567.83-34.13 569.66-33.23 571.18-31.97 572.71-30.71 574.05-29.17L574.05-29.17 569.07-24.12Q568.49-25.88 567.45-27.29 566.41-28.71 565.14-29.72 563.87-30.74 562.48-31.29 561.09-31.84 559.79-31.84L559.79-31.84Q558.11-31.84 556.69-31.6 555.28-31.37 554.26-30.85 553.25-30.32 552.69-29.43 552.13-28.54 552.13-27.22L552.13-27.22Q552.13-26.17 552.54-25.44 552.96-24.71 553.65-24.19 554.35-23.68 555.23-23.35 556.11-23.02 557.05-22.78 557.99-22.53 558.9-22.35 559.82-22.17 560.58-21.95L560.58-21.95Q562.04-21.53 563.65-21.07 565.26-20.61 566.83-19.98 568.39-19.36 569.8-18.55 571.22-17.75 572.29-16.64 573.37-15.53 574-14.07 574.64-12.62 574.64-10.74ZM608.67-16.16L608.67-16.16Q608.67-13.31 607.97-10.21 607.28-7.1 606.03-4.13 604.79-1.15 603.05 1.48 601.32 4.1 599.24 6.01L599.24 6.01 596.14 4.32Q596.8 3.1 597.39 1.59 597.97 0.07 598.45-1.62 598.93-3.32 599.31-5.13 599.68-6.93 599.94-8.7 600.2-10.47 600.33-12.15 600.47-13.82 600.47-15.26L600.47-15.26Q600.47-16.21 600.39-17.3 600.32-18.38 600.09-19.47 599.85-20.56 599.46-21.56 599.07-22.56 598.43-23.32 597.78-24.07 596.86-24.54 595.95-25 594.7-25L594.7-25Q593.48-25 592.53-24.45 591.58-23.9 590.85-23.01 590.11-22.12 589.59-20.97 589.06-19.82 588.73-18.62 588.4-17.41 588.26-16.24 588.11-15.06 588.11-14.14L588.11-14.14 588.11 0 579.84 0 579.84-38.57 588.09-38.57 588.09-24.05Q589.67-26.37 591.98-27.62 594.29-28.88 597.1-28.88L597.1-28.88Q600.03-28.88 602.2-27.93 604.37-26.98 605.81-25.28 607.25-23.58 607.96-21.25 608.67-18.92 608.67-16.16ZM642.5-28.2L642.5 0 634.25 0 634.25-3.37Q632.79-1.37 630.72-0.4 628.66 0.56 626.2 0.56L626.2 0.56Q622.97 0.56 620.43-0.59 617.89-1.73 616.14-3.72 614.38-5.71 613.45-8.4 612.52-11.08 612.52-14.16L612.52-14.16Q612.52-17.24 613.45-19.92 614.38-22.61 616.14-24.6 617.89-26.59 620.43-27.73 622.97-28.88 626.2-28.88L626.2-28.88Q627.83-28.88 629.31-28.39 630.78-27.91 632.02-27.01 633.25-26.12 634.19-24.87 635.13-23.61 635.67-22.07L635.67-22.07 639.33-28.2 642.5-28.2ZM634.2-14.16L634.2-14.16Q634.2-15.26 634.09-16.48 633.98-17.7 633.71-18.9 633.45-20.09 632.97-21.18 632.49-22.27 631.75-23.11 631-23.95 629.95-24.44 628.91-24.93 627.51-24.93L627.51-24.93Q626.12-24.93 625.1-24.43 624.07-23.93 623.34-23.08 622.61-22.24 622.13-21.14 621.65-20.04 621.39-18.85 621.12-17.65 621.01-16.44 620.9-15.23 620.9-14.16L620.9-14.16Q620.9-13.09 621.01-11.87 621.12-10.64 621.39-9.45 621.65-8.25 622.13-7.15 622.61-6.05 623.34-5.21 624.07-4.37 625.1-3.87 626.12-3.37 627.51-3.37L627.51-3.37Q628.78-3.37 629.77-3.89 630.76-4.42 631.51-5.3 632.25-6.18 632.76-7.3 633.28-8.42 633.59-9.62 633.91-10.82 634.06-12 634.2-13.18 634.2-14.16ZM679.37-14.16L679.37-14.16Q679.37-11.08 678.44-8.4 677.51-5.71 675.75-3.72 674-1.73 671.46-0.59 668.92 0.56 665.69 0.56L665.69 0.56Q663.23 0.56 661.17-0.4 659.1-1.37 657.64-3.37L657.64-3.37 657.64 13.01 649.39 13.01 649.39-28.2 652.56-28.2 656.22-22.07Q656.76-23.61 657.7-24.87 658.64-26.12 659.87-27.01 661.1-27.91 662.58-28.39 664.06-28.88 665.69-28.88L665.69-28.88Q668.92-28.88 671.46-27.73 674-26.59 675.75-24.6 677.51-22.61 678.44-19.92 679.37-17.24 679.37-14.16ZM670.99-14.16L670.99-14.16Q670.99-15.23 670.88-16.44 670.77-17.65 670.5-18.85 670.24-20.04 669.76-21.14 669.28-22.24 668.55-23.08 667.82-23.93 666.78-24.43 665.74-24.93 664.38-24.93L664.38-24.93Q662.96-24.93 661.92-24.44 660.88-23.95 660.14-23.11 659.4-22.27 658.92-21.18 658.44-20.09 658.18-18.9 657.91-17.7 657.8-16.48 657.69-15.26 657.69-14.16L657.69-14.16Q657.69-13.18 657.83-12 657.98-10.82 658.3-9.62 658.61-8.42 659.13-7.3 659.64-6.18 660.38-5.3 661.13-4.42 662.12-3.89 663.11-3.37 664.38-3.37L664.38-3.37Q665.77-3.37 666.79-3.87 667.82-4.37 668.55-5.21 669.28-6.05 669.76-7.15 670.24-8.25 670.5-9.45 670.77-10.64 670.88-11.87 670.99-13.09 670.99-14.16ZM693.33-35.01L693.33-35.01Q693.33-34.08 692.97-33.25 692.62-32.42 692.01-31.81 691.4-31.2 690.57-30.85 689.74-30.49 688.81-30.49L688.81-30.49Q687.88-30.49 687.07-30.85 686.25-31.2 685.64-31.81 685.03-32.42 684.67-33.25 684.32-34.08 684.32-35.01L684.32-35.01Q684.32-35.94 684.67-36.76 685.03-37.57 685.64-38.18 686.25-38.79 687.07-39.15 687.88-39.5 688.81-39.5L688.81-39.5Q689.74-39.5 690.57-39.15 691.4-38.79 692.01-38.18 692.62-37.57 692.97-36.76 693.33-35.94 693.33-35.01ZM692.96-28.17L692.96 0 684.69 0 684.69-28.17 692.96-28.17ZM728.7-16.16L728.7-16.16Q728.7-13.31 728.01-10.21 727.31-7.1 726.07-4.13 724.82-1.15 723.09 1.48 721.35 4.1 719.28 6.01L719.28 6.01 716.18 4.32Q716.84 3.1 717.42 1.59 718.01 0.07 718.48-1.62 718.96-3.32 719.34-5.13 719.72-6.93 719.97-8.7 720.23-10.47 720.36-12.15 720.5-13.82 720.5-15.26L720.5-15.26Q720.5-16.21 720.43-17.3 720.35-18.38 720.12-19.47 719.89-20.56 719.5-21.56 719.11-22.56 718.46-23.32 717.81-24.07 716.9-24.54 715.98-25 714.74-25L714.74-25Q713.52-25 712.56-24.45 711.61-23.9 710.88-23.01 710.15-22.12 709.62-20.97 709.1-19.82 708.77-18.62 708.44-17.41 708.29-16.24 708.15-15.06 708.15-14.14L708.15-14.14 708.15 0 699.87 0 699.87-28.2 703.04-28.2 706.83-21.63Q707.51-23.27 708.54-24.61 709.56-25.95 710.86-26.9 712.15-27.86 713.72-28.37 715.3-28.88 717.13-28.88L717.13-28.88Q720.06-28.88 722.23-27.93 724.41-26.98 725.85-25.28 727.29-23.58 727.99-21.25 728.7-18.92 728.7-16.16ZM762.54-28.2L762.54-3.39Q762.54-0.02 761.54 2.95 760.54 5.93 758.63 8.17 756.73 10.4 753.96 11.71 751.19 13.01 747.65 13.01L747.65 13.01Q745.69 13.01 743.7 12.57 741.71 12.13 739.94 11.22 738.17 10.3 736.77 8.9 735.36 7.5 734.56 5.59L734.56 5.59 738.12 4.25Q738.59 5.44 739.33 6.45 740.08 7.45 741.05 8.17 742.03 8.89 743.2 9.29 744.37 9.69 745.67 9.69L745.67 9.69Q748.11 9.69 749.76 8.69 751.4 7.69 752.41 6.08 753.41 4.47 753.85 2.43 754.29 0.39 754.29-1.71L754.29-1.71 754.29-3.37Q752.82-1.37 750.76-0.4 748.69 0.56 746.23 0.56L746.23 0.56Q743.01 0.56 740.47-0.59 737.93-1.73 736.17-3.72 734.41-5.71 733.48-8.4 732.56-11.08 732.56-14.16L732.56-14.16Q732.56-17.24 733.48-19.92 734.41-22.61 736.17-24.6 737.93-26.59 740.47-27.73 743.01-28.88 746.23-28.88L746.23-28.88Q747.86-28.88 749.34-28.39 750.82-27.91 752.05-27.01 753.28-26.12 754.22-24.87 755.16-23.61 755.7-22.07L755.7-22.07 759.36-28.2 762.54-28.2ZM754.24-14.16L754.24-14.16Q754.24-15.26 754.13-16.48 754.02-17.7 753.75-18.9 753.48-20.09 753-21.18 752.53-22.27 751.78-23.11 751.04-23.95 749.99-24.44 748.94-24.93 747.55-24.93L747.55-24.93Q746.16-24.93 745.13-24.43 744.11-23.93 743.37-23.08 742.64-22.24 742.16-21.14 741.69-20.04 741.42-18.85 741.15-17.65 741.04-16.44 740.93-15.23 740.93-14.16L740.93-14.16Q740.93-13.09 741.04-11.87 741.15-10.64 741.42-9.45 741.69-8.25 742.16-7.15 742.64-6.05 743.37-5.21 744.11-4.37 745.13-3.87 746.16-3.37 747.55-3.37L747.55-3.37Q748.82-3.37 749.81-3.89 750.79-4.42 751.54-5.3 752.28-6.18 752.8-7.3 753.31-8.42 753.63-9.62 753.94-10.82 754.09-12 754.24-13.18 754.24-14.16ZM793.81-15.33L793.81 0 784.11 0 784.11-35.16 809.36-35.16 809.36-30.66 793.81-30.66 793.81-19.8 805.82-19.8 805.82-15.33 793.81-15.33ZM810.77-12.06L810.77-12.06Q810.77-13.99 811.1-16.06 811.43-18.14 812.05-20.21 812.68-22.29 813.56-24.32 814.43-26.34 815.53-28.2L815.53-28.2 821.56-28.2Q820.95-26.37 820.48-24.38 820-22.39 819.67-20.4 819.34-18.41 819.16-16.5 818.98-14.6 818.98-12.96L818.98-12.96Q818.98-12.01 819.06-10.93 819.15-9.84 819.37-8.75 819.59-7.67 819.99-6.67 820.39-5.66 821.03-4.9 821.66-4.13 822.58-3.67 823.49-3.22 824.74-3.22L824.74-3.22Q825.96-3.22 826.92-3.77 827.89-4.32 828.62-5.21 829.35-6.1 829.86-7.25 830.38-8.4 830.71-9.61 831.04-10.82 831.19-11.98 831.35-13.13 831.35-14.06L831.35-14.06 831.35-28.2 839.61-28.2 839.61 0 836.43 0 832.65-6.57Q831.94-4.93 830.93-3.6 829.91-2.27 828.62-1.32 827.33-0.37 825.75 0.15 824.18 0.66 822.34 0.66L822.34 0.66Q819.41 0.66 817.24-0.29 815.07-1.25 813.63-2.93 812.19-4.61 811.48-6.95 810.77-9.28 810.77-12.06ZM857.11-24.93L857.11 0 848.83 0 848.83-24.93 843.7-24.93 843.7-28.2 848.83-28.2 848.83-38.57 857.11-38.57 857.11-28.2 865.65-28.2 865.65-24.93 857.11-24.93ZM867.38-12.06L867.38-12.06Q867.38-13.99 867.71-16.06 868.04-18.14 868.67-20.21 869.29-22.29 870.17-24.32 871.05-26.34 872.14-28.2L872.14-28.2 878.17-28.2Q877.56-26.37 877.09-24.38 876.61-22.39 876.28-20.4 875.95-18.41 875.77-16.5 875.59-14.6 875.59-12.96L875.59-12.96Q875.59-12.01 875.67-10.93 875.76-9.84 875.98-8.75 876.2-7.67 876.6-6.67 877-5.66 877.64-4.9 878.27-4.13 879.19-3.67 880.1-3.22 881.35-3.22L881.35-3.22Q882.57-3.22 883.53-3.77 884.5-4.32 885.23-5.21 885.96-6.1 886.48-7.25 886.99-8.4 887.32-9.61 887.65-10.82 887.81-11.98 887.96-13.13 887.96-14.06L887.96-14.06 887.96-28.2 896.22-28.2 896.22 0 893.04 0 889.26-6.57Q888.55-4.93 887.54-3.6 886.52-2.27 885.23-1.32 883.94-0.37 882.36 0.15 880.79 0.66 878.96 0.66L878.96 0.66Q876.03 0.66 873.85-0.29 871.68-1.25 870.24-2.93 868.8-4.61 868.09-6.95 867.38-9.28 867.38-12.06ZM927.07-25.71L927.07-25.71 922.43-18.02Q922.14-18.99 921.68-20.21 921.21-21.44 920.53-22.5 919.85-23.56 918.89-24.28 917.94-25 916.7-25L916.7-25Q915.55-25 914.71-24.41 913.87-23.83 913.28-22.89 912.69-21.95 912.32-20.76 911.94-19.58 911.73-18.37 911.52-17.16 911.45-16.05 911.38-14.94 911.38-14.14L911.38-14.14 911.38 0 903.1 0 903.1-28.2 906.27-28.2 909.62-21.63Q910.3-23.22 911.18-24.55 912.06-25.88 913.21-26.84 914.35-27.81 915.81-28.34 917.26-28.88 919.09-28.88L919.09-28.88Q920.04-28.88 921.21-28.72 922.39-28.56 923.51-28.19 924.63-27.81 925.58-27.2 926.54-26.59 927.07-25.71ZM936.57-13.38L936.57-13.38Q938.08-13.04 939.6-12.84 941.11-12.65 942.65-12.65L942.65-12.65Q944.26-12.65 945.64-12.95 947.02-13.26 948.03-13.98 949.04-14.7 949.63-15.89 950.22-17.09 950.22-18.87L950.22-18.87Q950.22-20.31 949.82-21.51 949.43-22.71 948.67-23.56 947.9-24.41 946.77-24.89 945.65-25.37 944.16-25.37L944.16-25.37Q942.77-25.37 941.66-24.85 940.55-24.34 939.71-23.47 938.86-22.61 938.26-21.46 937.67-20.31 937.28-19.07 936.89-17.82 936.71-16.55 936.54-15.28 936.54-14.16L936.54-14.16Q936.54-13.96 936.54-13.77 936.54-13.57 936.57-13.38ZM956.9-18.95L956.9-18.95Q956.9-17.21 956.34-15.86 955.78-14.5 954.82-13.48 953.85-12.45 952.58-11.74 951.31-11.04 949.87-10.58 948.43-10.13 946.91-9.94 945.38-9.74 943.94-9.74L943.94-9.74Q942.11-9.74 940.33-10 938.55-10.25 936.81-10.82L936.81-10.82Q937.08-9.2 937.67-7.75 938.25-6.3 939.23-5.21 940.21-4.13 941.63-3.49 943.06-2.86 945.02-2.86L945.02-2.86Q946.31-2.86 947.48-3.25 948.65-3.64 949.63-4.35 950.61-5.05 951.35-6.03 952.1-7.01 952.56-8.2L952.56-8.2 956.12-6.88Q955.32-4.96 953.91-3.55 952.51-2.15 950.74-1.23 948.97-0.32 946.98 0.12 944.99 0.56 943.04 0.56L943.04 0.56Q939.82 0.56 937.08-0.52 934.35-1.61 932.37-3.56 930.39-5.52 929.27-8.23 928.15-10.94 928.15-14.16L928.15-14.16Q928.15-17.38 929.27-20.09 930.39-22.8 932.37-24.76 934.35-26.71 937.08-27.8 939.82-28.88 943.04-28.88L943.04-28.88Q944.6-28.88 946.24-28.66 947.87-28.44 949.41-27.97 950.95-27.49 952.32-26.73 953.68-25.98 954.7-24.87 955.71-23.75 956.31-22.29 956.9-20.83 956.9-18.95ZM986.32-9.01L986.32-9.01Q986.32-7.15 985.78-5.71 985.25-4.27 984.32-3.21 983.39-2.15 982.12-1.43 980.85-0.71 979.4-0.27 977.95 0.17 976.36 0.37 974.77 0.56 973.21 0.56L973.21 0.56Q971.11 0.56 969.5 0.29 967.89 0.02 966.42-0.57 964.96-1.17 963.51-2.12 962.05-3.08 960.27-4.44L960.27-4.44 965.08-8.37Q965.74-7.13 966.83-6.12 967.91-5.1 969.09-4.37 970.26-3.64 971.36-3.25 972.45-2.86 973.14-2.86L973.14-2.86Q973.7-2.86 974.41-2.89 975.12-2.93 975.85-3.04 976.58-3.15 977.29-3.37 978-3.59 978.55-3.97 979.09-4.35 979.42-4.92 979.75-5.49 979.75-6.3L979.75-6.3Q979.75-7.13 979.33-7.75 978.9-8.37 978.22-8.84 977.53-9.3 976.65-9.62 975.77-9.94 974.88-10.18 973.99-10.42 973.16-10.61 972.33-10.79 971.72-10.96L971.72-10.96Q970.6-11.28 969.35-11.61 968.11-11.94 966.89-12.37 965.67-12.79 964.56-13.38 963.45-13.96 962.6-14.78 961.76-15.6 961.26-16.71 960.76-17.82 960.76-19.31L960.76-19.31Q960.76-22.05 961.85-23.89 962.93-25.73 964.71-26.84 966.5-27.95 968.77-28.42 971.04-28.88 973.38-28.88L973.38-28.88Q974.99-28.88 976.78-28.55 978.56-28.22 980.24-27.58 981.93-26.93 983.39-26 984.86-25.07 985.83-23.88L985.83-23.88 981.02-19.92Q980.49-21.39 979.62-22.44 978.75-23.49 977.74-24.16 976.73-24.83 975.66-25.15 974.6-25.46 973.7-25.46L973.7-25.46Q972.82-25.46 971.72-25.39 970.62-25.32 969.66-24.98 968.69-24.63 968.02-23.94 967.35-23.24 967.35-22.02L967.35-22.02Q967.35-21.14 967.75-20.52 968.16-19.9 968.82-19.45 969.48-18.99 970.32-18.69 971.16-18.38 972.04-18.15 972.92-17.92 973.75-17.75 974.58-17.58 975.24-17.38L975.24-17.38Q976.36-17.07 977.62-16.74 978.88-16.41 980.1-15.98 981.32-15.55 982.45-14.98 983.59-14.4 984.44-13.57 985.3-12.74 985.81-11.63 986.32-10.52 986.32-9.01Z" opacity="1" transform="matrix(1,0,0,1,0,0)" fill="#556970" class="slogan-text-1" data-fill-palette-color="secondary" id="text-1"></path></svg></g></svg></g></svg></g></svg></g><g transform="matrix(1,0,0,1,143.53957182270477,0)"><svg viewBox="0 0 110.41845635459035 94.41845635459035" height="94.41845635459035" width="110.41845635459035"><g><svg xmlns="http://www.w3.org/2000/svg" data-name="Layer 1" viewBox="0 0 128 128" x="8" y="0" height="94.41845635459035" width="94.41845635459035" class="icon-icon-0" data-fill-palette-color="accent" id="icon-0"><path d="M64 128A64 64 0 1 0 0 64 64.07 64.07 0 0 0 64 128M64 4A60 60 0 1 1 4 64 60.07 60.07 0 0 1 64 4" fill="#aba944" data-fill-palette-color="accent"></path><path d="M64 116A2 2 0 0 0 64 112 48 48 0 1 1 111.73 58.91 2 2 0 0 0 109 59 2 2 0 0 0 109 61.83L112.64 65.47A2 2 0 0 0 115.34 65.56L118.79 62A2 2 0 0 0 118.79 59.17 2.09 2.09 0 0 0 115.79 59.33 52 52 0 1 0 64 116" fill="#aba944" data-fill-palette-color="accent"></path><path d="M64 25A39 39 0 1 0 103 64 39 39 0 0 0 64 25M64 99A35 35 0 1 1 99 64 35 35 0 0 1 64 99" fill="#aba944" data-fill-palette-color="accent"></path><path d="M39 62H35A2 2 0 0 0 35 66H39A2 2 0 0 0 39 62" fill="#aba944" data-fill-palette-color="accent"></path><path d="M87 64A2 2 0 0 0 89 66H93A2 2 0 0 0 93 62H89A2 2 0 0 0 87 64" fill="#aba944" data-fill-palette-color="accent"></path><path d="M64 41A2 2 0 0 0 66 39V35A2 2 0 0 0 62 35V39A2 2 0 0 0 64 41" fill="#aba944" data-fill-palette-color="accent"></path><path d="M64 87A2 2 0 0 0 62 89V93A2 2 0 0 0 66 93V89A2 2 0 0 0 64 87" fill="#aba944" data-fill-palette-color="accent"></path><path d="M44.91 42.08A2 2 0 0 0 42.08 44.91L44.91 47.74A2 2 0 0 0 47.74 44.91Z" fill="#aba944" data-fill-palette-color="accent"></path><path d="M83.09 80.26A2 2 0 0 0 80.26 83.09L83.09 85.92A2 2 0 0 0 85.92 83.09Z" fill="#aba944" data-fill-palette-color="accent"></path><path d="M83.09 42.08L80.26 44.91A2 2 0 1 0 83.09 47.74L85.92 44.91A2 2 0 0 0 83.09 42.08" fill="#aba944" data-fill-palette-color="accent"></path><path d="M44.91 80.26L42.08 83.09A2 2 0 1 0 44.91 85.92L47.74 83.09A2 2 0 0 0 44.91 80.26" fill="#aba944" data-fill-palette-color="accent"></path><path d="M66 51.3V47A2 2 0 0 0 62 47V62H51A2 2 0 0 0 51 66H51.3A12.87 12.87 0 1 0 66 51.3M64 72.88A8.88 8.88 0 0 1 55.36 66H64A2 2 0 0 0 66 64V55.36A8.87 8.87 0 0 1 64 72.87Z" fill="#aba944" data-fill-palette-color="accent"></path></svg></g></svg></g><g><rect width="67.00645182270482" height="3.4419838989756664" y="89.97647245561468" x="253.95802817729512" fill="#556970" data-fill-palette-color="secondary"></rect><rect width="67.00645182270482" height="3.4419838989756664" y="89.97647245561468" x="76.53311999999997" fill="#556970" data-fill-palette-color="secondary"></rect></g></svg></g><defs></defs></svg><rect width="395.52" height="183.2850297663565" fill="none" stroke="none" visibility="hidden"></rect></g></svg></g></svg>